<?xml version="1.0"?>
<svg xmlns="http://www.w3.org/2000/svg" viewBox="0 0 24 24" width="24px" height="24px">
    <path d="M 11 1 L 11 3 L 13 3 L 13 1 L 11 1 z M 13 3 L 13 5 L 11 5 L 11 3 L 6 3 C 4.897 3 4 3.897 4 5 L 4 20 C 4 21.103 4.897 22 6 22 L 18 22 C 19.103 22 20 21.103 20 20 L 20 5 C 20 3.897 19.103 3 18 3 L 13 3 z M 12 8 C 13.417 8 14.5 9.083 14.5 10.5 C 14.5 11.917 13.417 13 12 13 C 10.583 13 9.5 11.917 9.5 10.5 C 9.5 9.083 10.583 8 12 8 z M 12 14 C 14.731 14 17 15.212031 17 16.957031 L 17 18 L 7 18 L 7 16.957031 C 7 15.212031 9.269 14 12 14 z"/>
</svg>
