<?xml version="1.0"?>
<svg xmlns="http://www.w3.org/2000/svg" viewBox="0 0 30 30" width="90px" height="90px">
    <path d="M 15 3.0019531 C 10.758 3.0019531 9 5.7229531 9 9.0019531 C 9 10.105953 9.5273437 11.214844 9.5273438 11.214844 C 9.3153438 11.336844 8.9666875 11.724109 9.0546875 12.412109 C 9.2186875 13.695109 9.7749062 14.021828 10.128906 14.048828 C 10.263906 15.245828 11.55 16.777 12 17 L 12 19 C 11.997808 19.006577 11.992494 19.011049 11.990234 19.017578 C 11.659537 19.05863 11.364495 19.253775 11.214844 19.556641 L 10.902344 20.185547 C 8.4342918 21.569421 3 21.226303 3 27 L 13.304688 27 L 14.5 23.083984 L 13.361328 21 L 14.972656 21 L 16.638672 21 L 15.5 23.083984 L 16.695312 27 L 20 27 L 20 26 C 20 25.448 20.448 25 21 25 L 23 25 C 23.552 25 24 25.448 24 26 L 24 27 L 27 27 C 27 21.226303 21.565708 21.569421 19.097656 20.185547 L 18.785156 19.556641 C 18.635505 19.253775 18.340463 19.05863 18.009766 19.017578 C 18.007506 19.011049 18.002192 19.006577 18 19 L 18 17 C 18.45 16.777 19.736094 15.245828 19.871094 14.048828 C 20.225094 14.021828 20.781312 13.695109 20.945312 12.412109 C 21.033313 11.723109 20.684656 11.336844 20.472656 11.214844 C 20.472656 11.214844 21 10.212953 21 9.0019531 C 21 6.5739531 20.047 4.5019531 18 4.5019531 C 18 4.5019531 17.289 3.0019531 15 3.0019531 z"/>
</svg>
