<?xml version="1.0" encoding="UTF-8"?>
<svg xmlns="http://www.w3.org/2000/svg" xmlns:xlink="http://www.w3.org/1999/xlink" viewBox="0 0 24 24" version="1.1" width="24px" height="24px">
<g id="surface1">
<path style=" " d="M 5 2 C 3.355469 2 2 3.355469 2 5 L 2 19 C 2 20.644531 3.355469 22 5 22 L 19 22 C 20.644531 22 22 20.644531 22 19 L 22 5 C 22 3.355469 20.644531 2 19 2 Z M 5 4 L 19 4 C 19.554688 4 20 4.445313 20 5 L 20 19 C 20 19.554688 19.554688 20 19 20 L 5 20 C 4.445313 20 4 19.554688 4 19 L 4 5 C 4 4.445313 4.445313 4 5 4 Z M 8 6 C 6.898438 6 6 6.898438 6 8 L 6 13 C 6 14.101563 6.898438 15 8 15 L 10 15 L 10 16 L 8 16 L 8 18 L 16 18 L 16 16 L 14 16 L 14 15 L 16 15 C 17.101563 15 18 14.101563 18 13 L 18 8 C 18 6.898438 17.101563 6 16 6 Z M 8 8 L 16 8 L 16 13 L 8 13 Z "/>
</g>
</svg>
