<?xml version="1.0" encoding="UTF-8"?>
<svg xmlns="http://www.w3.org/2000/svg" xmlns:xlink="http://www.w3.org/1999/xlink" viewBox="0 0 24 24" version="1.1" width="24px" height="24px">
<g id="surface1">
<path style=" " d="M 12 2 C 9.789063 2 8 3.789063 8 6 C 8 8.210938 9.789063 10 12 10 C 14.210938 10 16 8.210938 16 6 C 16 3.789063 14.210938 2 12 2 Z M 12 10 C 10.699219 10 9.539063 10.5 8.6875 11 L 6.09375 11 C 4.949219 11 3.945313 12.011719 4.125 13.21875 L 4.09375 13.21875 L 4.75 18.65625 L 4.3125 19.09375 C 4.011719 19.394531 4.011719 19.886719 4.3125 20.1875 L 5.90625 21.8125 C 6.207031 22.113281 6.699219 22.113281 7 21.8125 L 7.5 21.1875 C 7.574219 21.125 7.628906 21.074219 7.6875 21 L 16.3125 21 C 16.371094 21.074219 16.425781 21.125 16.5 21.1875 L 17 21.6875 C 17.300781 21.988281 17.792969 21.988281 18.09375 21.6875 L 19.6875 20.09375 C 19.988281 19.792969 19.988281 19.300781 19.6875 19 L 19.25 18.5625 L 19.90625 13.21875 L 19.90625 13.09375 C 19.90625 12.050781 19.0625 11 17.90625 11 L 15.3125 11 C 14.460938 10.5 13.300781 10 12 10 Z M 6.09375 13 L 17.90625 13 C 17.949219 13 17.90625 12.9375 17.90625 13.09375 L 17.28125 18.28125 C 17.179688 18.34375 17.085938 18.414063 17 18.5 L 16.5 19 L 7.5 19 L 7 18.59375 C 6.914063 18.507813 6.820313 18.4375 6.71875 18.375 Z M 16 14 C 15.449219 14 15 14.449219 15 15 C 15 15.550781 15.449219 16 16 16 C 16.550781 16 17 15.550781 17 15 C 17 14.449219 16.550781 14 16 14 Z "/>
</g>
</svg>
