<?xml version="1.0"?>
<svg xmlns="http://www.w3.org/2000/svg" viewBox="0 0 30 30" width="90px" height="90px">
    <path d="M 20 2 C 17.829 2 15.869688 2.8733437 14.429688 4.2773438 C 15.935688 4.6173437 17.320484 5.2672969 18.521484 6.1542969 C 18.675484 6.0962969 18.828 6.0350938 19 5.9960938 L 19 5 L 21 5 L 21 6.0039062 C 22.268 6.3019063 23.095094 7.1583594 23.121094 8.3183594 L 21.285156 8.3183594 C 21.242156 7.7663594 20.717578 7.3808594 20.017578 7.3808594 C 19.985578 7.3808594 19.962641 7.3905781 19.931641 7.3925781 C 20.503641 7.9885781 21.004641 8.6493281 21.431641 9.3613281 C 22.464641 9.6383281 23.033984 10.147453 23.208984 10.939453 C 24.686984 11.627453 25.966313 12.662312 26.945312 13.945312 C 27.612312 12.781313 28 11.439 28 10 C 28 5.582 24.418 2 20 2 z M 12 6 C 7.029 6 3 10.029 3 15 C 3 19.971 7.029 24 12 24 C 16.971 24 21 19.971 21 15 C 21 10.029 16.971 6 12 6 z M 11.001953 10 L 13.001953 10 L 13.001953 11.003906 C 14.269953 11.301906 15.097047 12.158359 15.123047 13.318359 L 13.287109 13.318359 C 13.244109 12.766359 12.719531 12.380859 12.019531 12.380859 C 11.319531 12.380859 10.859375 12.712422 10.859375 13.232422 C 10.859375 13.660422 11.206297 13.908313 12.029297 14.070312 L 13.037109 14.265625 C 14.581109 14.563625 15.275391 15.263906 15.275391 16.503906 C 15.274391 17.839906 14.428 18.730672 13 19.013672 L 13 20 L 11 20 L 11 19.021484 C 9.606 18.756484 8.7525625 17.917641 8.7265625 16.681641 L 10.621094 16.681641 C 10.670094 17.250641 11.2395 17.613281 12.0625 17.613281 C 12.8045 17.613281 13.314453 17.255234 13.314453 16.740234 C 13.314453 16.307234 12.971125 16.075484 12.078125 15.896484 L 11.050781 15.689453 C 9.6207813 15.418453 8.8828125 14.639156 8.8828125 13.410156 C 8.8828125 12.173156 9.6959531 11.291094 11.001953 10.996094 L 11.001953 10 z M 22.802734 12.960938 C 22.927734 13.621937 23 14.302 23 15 C 23 16.825 22.547813 18.542594 21.757812 20.058594 C 22.106813 20.422594 22.273437 20.897906 22.273438 21.503906 C 22.273438 22.839906 21.428 23.730672 20 24.013672 L 20 25 L 18 25 L 18 24.207031 C 16.693 25.062031 15.192078 25.640047 13.580078 25.873047 C 15.006078 27.189047 16.906 28 19 28 C 23.418 28 27 24.418 27 20 C 27 16.958 25.301734 14.313938 22.802734 12.960938 z"/>
</svg>
