<?xml version="1.0"?>
<svg xmlns="http://www.w3.org/2000/svg" viewBox="0 0 24 24" width="24px" height="24px">
    <path d="M 3 2 L 3 10 A 2 2 0 0 0 3.0390625 10.386719 C 3.0411905 10.397311 3.0445769 10.407434 3.046875 10.417969 A 2 2 0 0 0 5 12 L 13 12 A 2 2 0 0 0 13.386719 11.960938 C 13.397311 11.95881 13.407434 11.955423 13.417969 11.953125 A 2 2 0 0 0 15 10 L 15 2 L 13 2 L 13 8 A 2 2 0 0 0 11 10 L 7 10 A 2 2 0 0 0 5 8 L 5 2 L 3 2 z M 6 2 C 6 3.657 7.343 5 9 5 C 10.657 5 12 3.657 12 2 L 6 2 z M 16.949219 2 L 18.474609 5.6425781 C 17.547609 6.0345781 17.111953 7.1070625 17.501953 8.0390625 L 16 8.6738281 L 16 10 C 16 10.242 15.963203 10.474219 15.908203 10.699219 L 19.884766 9.0175781 C 20.811766 8.6245781 21.247422 7.5511406 20.857422 6.6191406 L 18.923828 2 L 16.949219 2 z M 9 6 C 8.447 6 8 6.448 8 7 C 8 7.552 8.447 8 9 8 C 9.553 8 10 7.552 10 7 C 10 6.448 9.553 6 9 6 z M 7.53125 13.019531 C 7.13025 13.119531 3.9281719 13.512328 3.3261719 13.611328 C 2.7241719 13.711328 2.3982656 13.911328 2.1972656 14.111328 C 1.6952656 14.710328 2.1961719 15.429125 3.2011719 16.328125 C 3.9041719 16.828125 8.7254688 20.626172 9.7304688 21.326172 C 10.835469 22.125172 11.443391 22.207422 13.150391 21.607422 C 14.355391 21.208422 15.052812 20.825172 16.257812 20.326172 C 18.065812 19.626172 19.396484 20.421875 19.396484 20.421875 L 22 14.705078 C 22 14.705078 18.083609 12.225828 15.974609 13.423828 C 15.372609 13.723828 12.625 16 11.125 16 L 11 16 C 10.448 16 10 16.448 10 17 C 10 17.421 10.260906 17.777781 10.628906 17.925781 C 10.752906 17.982781 10.846 18 11 18 L 13.125 18 C 14.531 18 17 17 17 17 C 17 17 15.125 19 13.125 19 L 11 19 C 9.895 19 9 18.105 9 17 C 9 15.895 9.895 15 11 15 C 11.002 15 11.003859 15.001953 11.005859 15.001953 C 11.008859 15.000953 11.010672 15 11.013672 15 L 11.125 15 C 11.252 15 11.411031 14.958344 11.582031 14.902344 C 11.321031 14.795344 10.278469 14.196031 9.7304688 13.832031 C 9.0534688 13.382031 8.4979062 13.089531 8.0039062 13.019531 C 7.8379062 12.994531 7.68225 12.994531 7.53125 13.019531 z"/>
</svg>
