<?xml version="1.0" encoding="UTF-8"?>
<svg xmlns="http://www.w3.org/2000/svg" xmlns:xlink="http://www.w3.org/1999/xlink" viewBox="0 0 24 24" version="1.1" width="24px" height="24px">
<g id="surface1">
<path style=" " d="M 8 0 L 8 8 L 16 8 L 16 0 Z M 11 1 L 13 1 L 13 3 L 15 3 L 15 5 L 13 5 L 13 7 L 11 7 L 11 5 L 9 5 L 9 3 L 11 3 Z M 0 3 L 0 24 L 24 24 L 24 3 L 17 3 L 17 5 L 22 5 L 22 22 L 14 22 L 14 16 L 10 16 L 10 22 L 2 22 L 2 5 L 7 5 L 7 3 Z M 4 10 L 4 14 L 8 14 L 8 10 Z M 10 10 L 10 14 L 14 14 L 14 10 Z M 16 10 L 16 14 L 20 14 L 20 10 Z M 4 16 L 4 20 L 8 20 L 8 16 Z M 16 16 L 16 20 L 20 20 L 20 16 Z "/>
</g>
</svg>
