<?xml version="1.0" encoding="UTF-8"?>
<svg xmlns="http://www.w3.org/2000/svg" xmlns:xlink="http://www.w3.org/1999/xlink" viewBox="0 0 50 50" version="1.1" width="500px" height="500px">
<g id="surface1">
<path style=" " d="M 8 0 C 7.210938 0 6.542969 0.460938 6.21875 1.125 C 4.851563 1.382813 2 2.164063 2 4.375 C 2 5.609375 4.796875 23.953125 12.03125 28.34375 C 12.027344 28.425781 12 28.507813 12 28.59375 C 12 30.855469 13.519531 35 16 35 C 18.480469 35 20 30.855469 20 28.59375 C 20 28.507813 19.972656 28.425781 19.96875 28.34375 C 27.203125 23.953125 30 5.609375 30 4.375 C 30 2.164063 27.148438 1.382813 25.78125 1.125 C 25.457031 0.460938 24.789063 0 24 0 C 22.894531 0 22 0.894531 22 2 C 22 3.105469 22.894531 4 24 4 C 24.675781 4 25.261719 3.667969 25.625 3.15625 C 26.824219 3.4375 28 3.945313 28 4.375 C 28 6.164063 24.917969 22.660156 19.125 26.5 C 18.476563 26.011719 17.667969 26 17.28125 26 C 17.085938 26 16.871094 25.992188 16.65625 26 C 16.234375 26.015625 15.765625 26.015625 15.34375 26 C 15.128906 25.992188 14.914063 26 14.71875 26 C 14.332031 26 13.519531 26.011719 12.875 26.5 C 7.082031 22.664063 4 6.164063 4 4.375 C 4 3.96875 5.09375 3.453125 6.375 3.15625 C 6.738281 3.667969 7.324219 4 8 4 C 9.105469 4 10 3.105469 10 2 C 10 0.894531 9.105469 0 8 0 Z M 43 23 C 39.140625 23 36 26.140625 36 30 C 36 33.859375 39.140625 37 43 37 C 46.859375 37 50 33.859375 50 30 C 50 26.140625 46.859375 23 43 23 Z M 43 27 C 44.652344 27 46 28.347656 46 30 C 46 31.652344 44.652344 33 43 33 C 41.347656 33 40 31.652344 40 30 C 40 28.347656 41.347656 27 43 27 Z M 17.125 36.84375 C 16.765625 36.945313 16.398438 37 16 37 C 15.6875 37 15.382813 36.96875 15.09375 36.90625 C 15.519531 41.804688 17.800781 49 30 49 C 39.882813 49 42.804688 42.851563 43.65625 38.96875 C 43.445313 38.984375 43.21875 39 43 39 C 42.535156 39 42.097656 38.941406 41.65625 38.875 C 40.847656 42.21875 38.238281 47 30 47 C 20.234375 47 17.667969 42.234375 17.125 36.84375 Z "/>
</g>
</svg>
