<?xml version="1.0" encoding="UTF-8"?>
<svg xmlns="http://www.w3.org/2000/svg" xmlns:xlink="http://www.w3.org/1999/xlink" viewBox="0 0 24 24" version="1.1" width="24px" height="24px">
<g id="surface1">
<path style=" " d="M 4 2 C 2.898438 2 2 2.898438 2 4 L 2 16 C 2 17.101563 2.898438 18 4 18 L 14 18 L 14 16 L 4 16 L 4 6 L 19 6 L 19 12 L 21 13.34375 L 21 4 C 21 2.898438 20.101563 2 19 2 Z M 6 8 L 6 10 L 8 10 L 8 8 Z M 9 8 L 9 10 L 17 10 L 17 8 Z M 6 12 L 6 14 L 8 14 L 8 12 Z M 9 12 L 9 14 L 14 14 L 14 12 Z M 16 13 L 16 22 L 22 17 Z "/>
</g>
</svg>
