<?xml version="1.0" encoding="UTF-8"?>
<svg xmlns="http://www.w3.org/2000/svg" xmlns:xlink="http://www.w3.org/1999/xlink" viewBox="0 0 50 50" version="1.1" width="500px" height="500px">
<g id="surface1">
<path style=" " d="M 12 3.613281 L 12 28 L 9 28 L 9 23 L 7 23 L 7 28 L 4 28 L 4 46 L 46 46 L 46 15 L 35 15 L 35 11.28125 L 32 10.28125 L 32 4 L 30 4 L 30 9.609375 L 28 8.945313 L 28 4 L 26 4 L 26 8.28125 Z M 14 6.390625 L 33 12.71875 L 33 44 L 28 44 L 28 40.855469 C 29.714844 40.40625 31 38.851563 31 37 C 31 34.800781 29.199219 33 27 33 C 24.800781 33 23 34.800781 23 37 C 23 38.851563 24.285156 40.40625 26 40.855469 L 26 44 L 21 44 L 21 28 L 14 28 Z M 16 12 L 16 14 L 22 14 L 22 12 Z M 16 16 L 16 18 L 31 18 L 31 16 Z M 38 19 L 42 19 L 42 22 L 38 22 Z M 16 20 L 16 22 L 24 22 L 24 20 Z M 26.011719 20 L 25.988281 22 L 30.988281 22.046875 L 31.011719 20.046875 Z M 16 24 L 16 26 L 31 26 L 31 24 Z M 38 24 L 42 24 L 42 27 L 38 27 Z M 23 28 L 23 30 L 31 30 L 31 28 Z M 38 29 L 42 29 L 42 32 L 38 32 Z M 8 32 L 11 32 L 11 34 L 8 34 Z M 14 32 L 17 32 L 17 34 L 14 34 Z M 38 34 L 42 34 L 42 37 L 38 37 Z M 8 36 L 11 36 L 11 38 L 8 38 Z M 14 36 L 17 36 L 17 38 L 14 38 Z M 38 39 L 42 39 L 42 42 L 38 42 Z M 8 40 L 11 40 L 11 42 L 8 42 Z M 14 40 L 17 40 L 17 42 L 14 42 Z "/>
</g>
</svg>
