<?xml version="1.0" encoding="UTF-8"?>
<svg xmlns="http://www.w3.org/2000/svg" xmlns:xlink="http://www.w3.org/1999/xlink" viewBox="0 0 26 26" version="1.1" width="52px" height="52px">
<g id="surface1">
<path style=" " d="M 14.5 0.0625 C 13.707031 0.0625 13.0625 0.707031 13.0625 1.5 C 13.0625 2.292969 13.707031 2.9375 14.5 2.9375 C 15.292969 2.9375 15.9375 2.292969 15.9375 1.5 C 15.9375 0.707031 15.292969 0.0625 14.5 0.0625 Z M 8 4 L 8 6 L 9 6 L 9 11.75 C 8.992188 11.78125 8.953125 11.890625 8.875 12 C 8.71875 12.214844 8.476563 12.542969 8.15625 12.90625 C 7.515625 13.636719 6.636719 14.574219 5.75 15.59375 C 4.863281 16.613281 3.953125 17.710938 3.25 18.78125 C 2.546875 19.851563 2 20.863281 2 22 C 2 22.972656 2.351563 23.820313 2.875 24.40625 C 3.398438 24.992188 4.054688 25.335938 4.65625 25.5625 C 5.863281 26.015625 7 26 7 26 L 19 26 C 19 26 20.136719 26.015625 21.34375 25.5625 C 21.945313 25.335938 22.601563 24.992188 23.125 24.40625 C 23.648438 23.820313 24 22.972656 24 22 C 24 20.863281 23.453125 19.851563 22.75 18.78125 C 22.046875 17.710938 21.136719 16.613281 20.25 15.59375 C 19.363281 14.574219 18.484375 13.636719 17.84375 12.90625 C 17.523438 12.542969 17.28125 12.214844 17.125 12 C 17.046875 11.890625 17.007813 11.78125 17 11.75 L 17 6 L 18 6 L 18 4 Z M 11 6 L 15 6 L 15 12 C 15 12.722656 15.273438 12.875 15.5 13.1875 C 15.726563 13.5 16.007813 13.832031 16.34375 14.21875 C 16.789063 14.730469 17.378906 15.378906 17.9375 16 L 9.6875 16 C 9.6875 16 5.78125 21.375 5.71875 23.8125 C 5.59375 23.777344 5.46875 23.734375 5.34375 23.6875 C 4.945313 23.539063 4.601563 23.320313 4.375 23.0625 C 4.148438 22.804688 4 22.527344 4 22 C 4 21.644531 4.328125 20.808594 4.9375 19.875 C 5.546875 18.941406 6.386719 17.894531 7.25 16.90625 C 8.113281 15.917969 8.984375 14.988281 9.65625 14.21875 C 9.992188 13.832031 10.273438 13.5 10.5 13.1875 C 10.726563 12.875 11 12.722656 11 12 Z M 12.5625 8.0625 C 11.769531 8.0625 11.125 8.707031 11.125 9.5 C 11.125 10.292969 11.769531 10.9375 12.5625 10.9375 C 13.355469 10.9375 14 10.292969 14 9.5 C 14 8.707031 13.355469 8.0625 12.5625 8.0625 Z M 11.46875 16.96875 C 12.328125 16.96875 13.03125 17.671875 13.03125 18.53125 C 13.03125 19.390625 12.328125 20.09375 11.46875 20.09375 C 10.609375 20.09375 9.90625 19.390625 9.90625 18.53125 C 9.90625 17.671875 10.609375 16.96875 11.46875 16.96875 Z M 16 18.90625 C 17.164063 18.90625 18.09375 19.835938 18.09375 21 C 18.09375 22.164063 17.164063 23.09375 16 23.09375 C 14.835938 23.09375 13.90625 22.164063 13.90625 21 C 13.90625 19.835938 14.835938 18.90625 16 18.90625 Z "/>
</g>
</svg>
