<?xml version="1.0"?>
<svg xmlns="http://www.w3.org/2000/svg" viewBox="0 0 30 30" width="90px" height="90px">
    <path style="line-height:normal;text-indent:0;text-align:start;text-decoration-line:none;text-decoration-style:solid;text-decoration-color:#000;text-transform:none;block-progression:tb;isolation:auto;mix-blend-mode:normal" d="M 8 3 C 5.8026661 3 4 4.8026661 4 7 L 4 25 A 1.0001 1.0001 0 0 0 5 26 L 12.035156 26 L 14.957031 26 L 16.332031 24 L 12.035156 24 L 6 24 L 6 7 C 6 5.8833339 6.8833339 5 8 5 L 20.648438 5 C 20.288757 5.5975688 20 6.2541224 20 7 L 20 14 L 22 14 L 22 9 L 25 9 C 25.552 9 26 8.552 26 8 L 26 6 C 26 4.409153 24.758561 3.1209096 23.193359 3.0195312 A 1.0001 1.0001 0 0 0 23 3 L 8 3 z M 9 8 A 1 1 0 0 0 8 9 A 1 1 0 0 0 9 10 A 1 1 0 0 0 10 9 A 1 1 0 0 0 9 8 z M 13 8 A 1 1 0 0 0 12 9 A 1 1 0 0 0 13 10 A 1 1 0 0 0 14 9 A 1 1 0 0 0 13 8 z M 17 8 A 1 1 0 0 0 16 9 A 1 1 0 0 0 17 10 A 1 1 0 0 0 18 9 A 1 1 0 0 0 17 8 z M 9 12 A 1 1 0 0 0 8 13 A 1 1 0 0 0 9 14 A 1 1 0 0 0 10 13 A 1 1 0 0 0 9 12 z M 13 12 A 1 1 0 0 0 12 13 A 1 1 0 0 0 13 14 A 1 1 0 0 0 14 13 A 1 1 0 0 0 13 12 z M 16 15 A 1 1 0 0 0 15 16 A 1 1 0 0 0 16 17 A 1 1 0 0 0 17 16 A 1 1 0 0 0 16 15 z M 9 16 A 1 1 0 0 0 8 17 A 1 1 0 0 0 9 18 A 1 1 0 0 0 10 17 A 1 1 0 0 0 9 16 z M 20 16 A 1.0001 1.0001 0 1 0 20 18 L 20 21.585938 L 16.320312 26.916016 A 1.0001 1.0001 0 0 0 16.287109 26.970703 C 15.513359 28.260923 16.497368 30 18.001953 30 L 27.998047 30 C 29.502696 30 30.486638 28.260926 29.712891 26.970703 A 1.0001 1.0001 0 0 0 29.679688 26.916016 L 26 21.585938 L 26 18 A 1.0001 1.0001 0 1 0 26 16 L 25 16 L 21 16 L 20 16 z M 22 18 L 24 18 L 24 21.898438 A 1.0001 1.0001 0 0 0 24.177734 22.466797 L 25.236328 24 L 20.763672 24 L 21.822266 22.466797 A 1.0001 1.0001 0 0 0 22 21.898438 L 22 18 z M 9 20 A 1 1 0 0 0 8 21 A 1 1 0 0 0 9 22 A 1 1 0 0 0 10 21 A 1 1 0 0 0 9 20 z"/>
</svg>
