<?xml version="1.0"?>
<svg xmlns="http://www.w3.org/2000/svg" viewBox="0 0 30 30" width="90px" height="90px">
    <path style="line-height:normal;text-indent:0;text-align:start;text-decoration-line:none;text-decoration-style:solid;text-decoration-color:#000;text-transform:none;block-progression:tb;isolation:auto;mix-blend-mode:normal" d="M 13 3 C 7.4889971 3 3 7.4889971 3 13 C 3 18.511003 7.4889971 23 13 23 C 15.396508 23 17.597385 22.148986 19.322266 20.736328 L 25.292969 26.707031 A 1.0001 1.0001 0 1 0 26.707031 25.292969 L 20.736328 19.322266 C 22.148986 17.597385 23 15.396508 23 13 C 23 7.4889971 18.511003 3 13 3 z M 13 5 C 17.430123 5 21 8.5698774 21 13 C 21 17.430123 17.430123 21 13 21 C 8.5698774 21 5 17.430123 5 13 C 5 8.5698774 8.5698774 5 13 5 z M 13 7 A 3 3 0 0 0 10 10 A 3 3 0 0 0 13 13 A 3 3 0 0 0 16 10 A 3 3 0 0 0 13 7 z M 13 15 C 11.24 15 9.6995938 15.914062 8.8085938 17.289062 C 9.8905938 18.346062 11.368 19 13 19 C 14.632 19 16.109406 18.346062 17.191406 17.289062 C 16.300406 15.914062 14.76 15 13 15 z" font-weight="400" font-family="sans-serif" white-space="normal" overflow="visible"/>
</svg>
