<?xml version="1.0" encoding="UTF-8"?>
<svg xmlns="http://www.w3.org/2000/svg" xmlns:xlink="http://www.w3.org/1999/xlink" viewBox="0 0 24 24" version="1.1" width="24px" height="24px">
<g id="surface1">
<path style=" " d="M 9 4 C 7.894531 4 7 4.894531 7 6 C 7 7.105469 7.894531 8 9 8 C 10.105469 8 11 7.105469 11 6 C 11 4.894531 10.105469 4 9 4 Z M 15 4 C 13.894531 4 13 4.894531 13 6 C 13 7.105469 13.894531 8 15 8 C 16.105469 8 17 7.105469 17 6 C 17 4.894531 16.105469 4 15 4 Z M 6 9 C 4.898438 9 4 9.898438 4 11 C 4 12.101563 4.898438 13 6 13 C 7.101563 13 8 12.101563 8 11 C 8 9.898438 7.101563 9 6 9 Z M 18 9 C 16.898438 9 16 9.898438 16 11 C 16 12.101563 16.898438 13 18 13 C 19.101563 13 20 12.101563 20 11 C 20 9.898438 19.101563 9 18 9 Z M 12 12 C 10.898438 12 10 12.898438 10 14 C 10 15.101563 10.898438 16 12 16 C 13.101563 16 14 15.101563 14 14 C 14 12.898438 13.101563 12 12 12 Z M 6 14 C 3.300781 14 2.5 16.1875 2.5 16.1875 L 2.5 17 L 9.5 17 L 9.5 16.1875 C 9.5 16.1875 8.699219 14 6 14 Z M 18 14 C 15.300781 14 14.5 16.1875 14.5 16.1875 L 14.5 17 L 21.5 17 L 21.5 16.1875 C 21.5 16.1875 20.699219 14 18 14 Z M 12 17 C 9 17 8 19.1875 8 19.1875 L 8 20 L 16 20 L 16 19.1875 C 16 19.1875 15 17 12 17 Z "/>
</g>
</svg>
