<?xml version="1.0" encoding="UTF-8"?>
<svg xmlns="http://www.w3.org/2000/svg" xmlns:xlink="http://www.w3.org/1999/xlink" viewBox="0 0 24 24" version="1.1" width="24px" height="24px">
<g id="surface1">
<path style=" fill-rule:evenodd;" d="M 14.398438 4.304688 C 14.214844 4.304688 14.027344 4.371094 13.898438 4.5 L 12.898438 5.5 L 15.148438 7.75 L 16.148438 6.5 C 16.148438 6.5 16.410156 6.007813 16.148438 5.75 L 14.898438 4.5 C 14.769531 4.371094 14.582031 4.304688 14.398438 4.304688 Z M 12.148438 6.25 L 8.148438 10.5 C 9.34375 10.105469 9.757813 10.441406 11.648438 11.25 L 14.398438 8.5 Z M 7.804688 6.75 C 6.789063 6.746094 6.039063 6.976563 5.648438 7.5 L 2 12.898438 C 2.265625 13.332031 2.917969 13.714844 3.898438 13 L 9.898438 7 C 9.117188 6.839844 8.410156 6.753906 7.804688 6.75 Z M 15.648438 8.5 L 13.148438 11 L 13.648438 12 L 13.148438 12.5 L 8.773438 10.8125 C 8.097656 10.628906 7.378906 10.992188 7.109375 11.667969 C 6.839844 12.339844 7.269531 13.082031 7.78125 13.421875 L 13.148438 16.59375 C 13.777344 16.898438 14.464844 17.105469 15.148438 17 C 16.195313 16.839844 19.148438 16.03125 19.148438 16.03125 L 19.148438 10 Z M 20.148438 9 L 20.148438 17 L 22.148438 17 L 22.148438 9 Z M 6.648438 11.75 L 3.148438 15.25 L 3.148438 17.46875 L 5.398438 17.25 L 8.648438 14.5 C 7.382813 14.078125 6 13.195313 6.648438 11.75 Z "/>
</g>
</svg>
