<?xml version="1.0" encoding="UTF-8"?>
<svg xmlns="http://www.w3.org/2000/svg" xmlns:xlink="http://www.w3.org/1999/xlink" viewBox="0 0 24 24" version="1.1" width="24px" height="24px">
<g id="surface1">
<path style=" " d="M 8.40625 2 C 8.207031 2 8 2.207031 8 2.40625 L 7.8125 4.40625 C 7.3125 4.605469 6.804688 4.886719 6.40625 5.1875 L 4.40625 4.40625 C 4.207031 4.304688 4.007813 4.394531 3.90625 4.59375 L 2.3125 7.40625 C 2.210938 7.605469 2.207031 7.804688 2.40625 7.90625 L 4.09375 9.09375 C 3.992188 9.394531 4 9.699219 4 10 C 4 10.300781 3.992188 10.613281 4.09375 10.8125 L 2.40625 12 C 2.207031 12.101563 2.210938 12.300781 2.3125 12.5 L 3.90625 15.3125 C 4.007813 15.511719 4.207031 15.5 4.40625 15.5 L 6.3125 14.59375 C 6.710938 14.894531 7.1875 15.207031 7.6875 15.40625 L 8 17.59375 C 8 17.792969 8.207031 18 8.40625 18 L 10 18 L 10 13.1875 C 8.199219 13.1875 6.8125 11.800781 6.8125 10 C 6.8125 8.199219 8.199219 6.8125 10 6.8125 C 11.800781 6.8125 13.1875 8.199219 13.1875 10 L 16 10 C 16 9.699219 16.007813 9.386719 15.90625 9.1875 L 17.59375 8 C 17.792969 7.898438 17.789063 7.699219 17.6875 7.5 L 16.09375 4.6875 C 15.992188 4.488281 15.792969 4.5 15.59375 4.5 L 13.6875 5.40625 C 13.289063 5.105469 12.8125 4.792969 12.3125 4.59375 L 12 2.40625 C 12 2.207031 11.792969 2 11.59375 2 Z M 13 11 C 12.476563 11 11.941406 11.183594 11.5625 11.5625 C 11.183594 11.941406 11 12.476563 11 13 L 11 20 C 11 20.523438 11.183594 21.058594 11.5625 21.4375 C 11.941406 21.816406 12.476563 22 13 22 L 20 22 C 20.523438 22 21.058594 21.816406 21.4375 21.4375 C 21.816406 21.058594 22 20.523438 22 20 L 22 13 C 22 12.476563 21.816406 11.941406 21.4375 11.5625 C 21.058594 11.183594 20.523438 11 20 11 Z M 13 15 L 20 15 L 20 20 L 13 20 Z M 17.5625 15.875 L 16 17.4375 L 15.34375 16.78125 L 14.28125 17.84375 L 16 19.5625 L 18.625 16.9375 Z "/>
</g>
</svg>
