<?xml version="1.0" encoding="UTF-8"?>
<svg xmlns="http://www.w3.org/2000/svg" xmlns:xlink="http://www.w3.org/1999/xlink" viewBox="0 0 24 24" version="1.1" width="24px" height="24px">
<g id="surface1">
<path style=" " d="M 12 2 C 10.34375 2 9 3.34375 9 5 C 9 6.65625 10.34375 8 12 8 C 13.65625 8 15 6.65625 15 5 C 15 3.34375 13.65625 2 12 2 Z M 9 9 C 5.675781 9 3 11.675781 3 15 L 3 17 L 5 17 L 5 15 C 5 13.019531 6.316406 11.464844 8.15625 11.09375 C 8.0625 11.382813 8 11.679688 8 12 L 8 17 L 10 17 L 10 12 C 10 11.445313 10.445313 11 11 11 L 13 11 C 13.554688 11 14 11.445313 14 12 L 14 17 L 16 17 L 16 12 C 16 11.679688 15.9375 11.382813 15.84375 11.09375 C 17.683594 11.464844 19 13.019531 19 15 L 19 17 L 21 17 L 21 15 C 21 11.675781 18.324219 9 15 9 Z M 4 18 C 2.894531 18 2 18.894531 2 20 C 2 21.105469 2.894531 22 4 22 C 5.105469 22 6 21.105469 6 20 C 6 18.894531 5.105469 18 4 18 Z M 9 18 C 7.894531 18 7 18.894531 7 20 C 7 21.105469 7.894531 22 9 22 C 10.105469 22 11 21.105469 11 20 C 11 18.894531 10.105469 18 9 18 Z M 15 18 C 13.894531 18 13 18.894531 13 20 C 13 21.105469 13.894531 22 15 22 C 16.105469 22 17 21.105469 17 20 C 17 18.894531 16.105469 18 15 18 Z M 20 18 C 18.894531 18 18 18.894531 18 20 C 18 21.105469 18.894531 22 20 22 C 21.105469 22 22 21.105469 22 20 C 22 18.894531 21.105469 18 20 18 Z "/>
</g>
</svg>
