<?xml version="1.0" encoding="UTF-8"?>
<svg xmlns="http://www.w3.org/2000/svg" xmlns:xlink="http://www.w3.org/1999/xlink" viewBox="0 0 24 24" version="1.1" width="24px" height="24px">
<g id="surface1">
<path style=" fill-rule:evenodd;" d="M 19.800781 22.015625 L 11.199219 22.015625 C 10.058594 22.015625 9.117188 21.144531 9.011719 20.027344 L 3 20.027344 C 3 15.015625 3 4.984375 3 4.984375 C 3 4.984375 3.046875 4.550781 3.121094 4.34375 C 3.316406 3.8125 3.742188 3.378906 4.269531 3.167969 C 4.488281 3.082031 4.71875 3.039063 4.953125 3.03125 C 7.632813 2.996094 10.3125 3.027344 12.988281 3.027344 C 13.210938 3.03125 13.425781 3.0625 13.632813 3.136719 C 14.207031 3.328125 14.671875 3.78125 14.878906 4.347656 C 14.960938 4.570313 15 5.039063 15 5.039063 L 15 12.015625 L 19.800781 12.015625 C 21.015625 12.015625 22 13 22 14.214844 L 22 19.816406 C 22 21.027344 21.015625 22.015625 19.800781 22.015625 Z M 20 20.015625 L 20 19.015625 C 20 18.449219 18.765625 18.015625 17.5 18.015625 C 16.234375 18.015625 15.007813 18.574219 15 19.015625 L 15 20.015625 Z M 12.976563 5.027344 L 5.019531 5.027344 C 5.011719 5.027344 5 5.027344 5 5.03125 C 5 5.039063 5 5.042969 5 5.046875 L 5 18.027344 L 9 18.027344 L 9 14.214844 C 9 13 9.984375 12.015625 11.199219 12.015625 L 13 12.015625 L 13 5.054688 C 13 5.042969 13.003906 5.039063 12.996094 5.03125 C 12.988281 5.027344 12.984375 5.027344 12.976563 5.027344 Z M 8 17.027344 L 6 17.027344 L 6 15.027344 L 8 15.027344 Z M 17.5 14.015625 C 18.328125 14.015625 19 14.6875 19 15.515625 C 19 16.34375 18.328125 17.015625 17.5 17.015625 C 16.671875 17.015625 16 16.34375 16 15.515625 C 16 14.6875 16.671875 14.015625 17.5 14.015625 Z M 8 14.027344 L 6 14.027344 L 6 12.027344 L 8 12.027344 Z M 12 11.027344 L 10 11.027344 L 10 9.027344 L 12 9.027344 Z M 8 11.027344 L 6 11.027344 L 6 9.027344 L 8 9.027344 Z M 8 8.027344 L 6 8.027344 L 6 6.027344 L 8 6.027344 Z M 12 8.027344 L 10 8.027344 L 10 6.027344 L 12 6.027344 Z "/>
</g>
</svg>
