<?xml version="1.0" encoding="UTF-8"?>
<svg xmlns="http://www.w3.org/2000/svg" xmlns:xlink="http://www.w3.org/1999/xlink" viewBox="0 0 24 24" version="1.1" width="24px" height="24px">
<g id="surface1">
<path style=" " d="M 3.21875 2 L 2.28125 2.9375 L 4.40625 5.0625 L 3.46875 6 L 7 6.71875 L 6.28125 3.1875 L 5.34375 4.125 Z M 20.78125 2 L 18.65625 4.125 L 17.71875 3.1875 L 17 6.71875 L 20.53125 6 L 19.59375 5.0625 L 21.71875 2.9375 Z M 11.5 7 C 10.121094 7 9 8.121094 9 9.5 C 9 10.878906 10.121094 12 11.5 12 C 12.878906 12 14 10.878906 14 9.5 C 14 8.121094 12.878906 7 11.5 7 Z M 6 8 C 4.894531 8 4 8.894531 4 10 C 4 11.105469 4.894531 12 6 12 C 7.105469 12 8 11.105469 8 10 C 8 8.894531 7.105469 8 6 8 Z M 18 8 C 16.894531 8 16 8.894531 16 10 C 16 11.105469 16.894531 12 18 12 C 19.105469 12 20 11.105469 20 10 C 20 8.894531 19.105469 8 18 8 Z M 6 13 C 2.960938 13 2 15 2 15 L 2 16 L 6 16 L 6 15.34375 C 6 15.34375 6.445313 14.195313 7.65625 13.25 C 7.1875 13.101563 6.65625 13 6 13 Z M 11.5 13 C 8.082031 13 7 15.65625 7 15.65625 L 7 17 L 16 17 L 16 15.65625 C 16 15.65625 14.917969 13 11.5 13 Z M 18 13 C 16.996094 13 16.246094 13.242188 15.65625 13.53125 C 16.628906 14.410156 17 15.34375 17 15.34375 L 17 16 L 22 16 L 22 15 C 22 15 21.039063 13 18 13 Z M 6.71875 17.28125 L 3.1875 18 L 4.125 18.9375 L 2 21.0625 L 2.9375 22 L 5.0625 19.875 L 6 20.8125 Z M 17 17.28125 L 17.71875 20.8125 L 18.65625 19.875 L 20.78125 22 L 21.71875 21.0625 L 19.59375 18.9375 L 20.53125 18 Z "/>
</g>
</svg>
