<?xml version="1.0"?>
<svg xmlns="http://www.w3.org/2000/svg" viewBox="0 0 24 24" width="24px" height="24px">
    <path d="M 8 2 C 6.9 2 6 2.9 6 4 L 6 8 C 6 9.1 6.9 10 8 10 L 10 10 L 12 13 L 14 10 L 16 10 C 17.1 10 18 9.1 18 8 L 18 4 C 18 2.9 17.1 2 16 2 L 8 2 z M 7 13 A 2 2 0 0 0 5 15 A 2 2 0 0 0 7 17 A 2 2 0 0 0 9 15 A 2 2 0 0 0 7 13 z M 17 13 A 2 2 0 0 0 15 15 A 2 2 0 0 0 17 17 A 2 2 0 0 0 19 15 A 2 2 0 0 0 17 13 z M 7 18 C 4.815 18 3 18.908797 3 20.216797 L 3 22 L 11 22 L 11 20.216797 C 11 18.908797 9.185 18 7 18 z M 17 18 C 14.815 18 13 18.908797 13 20.216797 L 13 22 L 21 22 L 21 20.216797 C 21 18.908797 19.185 18 17 18 z"/>
</svg>
