<?xml version="1.0"?>
<svg xmlns="http://www.w3.org/2000/svg" viewBox="0 0 24 24" width="24px" height="24px">
    <path d="M 8 2 L 2 8 L 5.7636719 11.763672 L 7.1777344 10.347656 L 4.828125 8 L 8 4.828125 L 10.349609 7.1777344 L 11.763672 5.7636719 L 8 2 z M 18.414062 2 C 18.158188 2 17.902031 2.0974687 17.707031 2.2929688 L 16 4 L 20 8 L 21.707031 6.2929688 C 22.098031 5.9019687 22.098031 5.2689063 21.707031 4.8789062 L 19.121094 2.2929688 C 18.925594 2.0974687 18.669937 2 18.414062 2 z M 14.5 5.5 L 3 17 L 3 21 L 7 21 L 18.5 9.5 L 14.5 5.5 z M 18.236328 12.236328 L 16.822266 13.650391 L 19.171875 16 L 16 19.171875 L 13.652344 16.822266 L 12.236328 18.236328 L 16 22 L 22 16 L 18.236328 12.236328 z"/>
</svg>
