<?xml version="1.0" encoding="UTF-8"?>
<svg xmlns="http://www.w3.org/2000/svg" xmlns:xlink="http://www.w3.org/1999/xlink" viewBox="0 0 24 24" version="1.1" width="24px" height="24px">
<g id="surface1">
<path style=" " d="M 17 2 L 12 5 L 7 2 L 2 5 L 2 20 C 2 21.101563 2.898438 22 4 22 L 20 22 C 21.101563 22 22 21.101563 22 20 L 22 5 Z M 6 20 L 4 20 L 4 18 L 6 18 Z M 6 16 L 4 16 L 4 14 L 6 14 Z M 6 12 L 4 12 L 4 10 L 6 10 Z M 6 8 L 4 8 L 4 6 L 6 6 Z M 10 20 L 8 20 L 8 18 L 10 18 Z M 10 16 L 8 16 L 8 14 L 10 14 Z M 10 12 L 8 12 L 8 10 L 10 10 Z M 10 8 L 8 8 L 8 6 L 10 6 Z M 16 20 L 14 20 L 14 18 L 16 18 Z M 16 16 L 14 16 L 14 14 L 16 14 Z M 16 12 L 14 12 L 14 10 L 16 10 Z M 16 8 L 14 8 L 14 6 L 16 6 Z M 20 20 L 18 20 L 18 18 L 20 18 Z M 20 16 L 18 16 L 18 14 L 20 14 Z M 20 12 L 18 12 L 18 10 L 20 10 Z M 20 8 L 18 8 L 18 6 L 20 6 Z "/>
</g>
</svg>
