<?xml version="1.0" encoding="UTF-8"?>
<svg xmlns="http://www.w3.org/2000/svg" xmlns:xlink="http://www.w3.org/1999/xlink" viewBox="0 0 24 24" version="1.1" width="24px" height="24px">
<g id="surface1">
<path style=" " d="M 12 1.9375 L 11.65625 2.0625 L 6.65625 3.96875 L 6 4.21875 L 6 9.53125 L 6.5625 9.8125 L 11.5625 12.1875 L 12 12.40625 L 12.4375 12.1875 L 17.4375 9.8125 L 18 9.53125 L 18 4.21875 L 17.34375 3.96875 L 12.34375 2.0625 Z M 3.5 4 C 2.699219 4 2 4.695313 2 5.59375 L 2 13.40625 C 2 15.605469 2.488281 15.792969 3.1875 16.59375 C 3.886719 17.394531 6 19.6875 6 19.6875 L 6 22.09375 L 11 22.09375 L 11 18.90625 C 11 16.707031 10.394531 15.300781 9.09375 14 L 6.59375 11.5 C 5.992188 10.898438 5.101563 10.898438 4.5 11.5 C 3.898438 12.101563 3.898438 12.992188 4.5 13.59375 L 7.8125 16.90625 C 7.8125 16.90625 6.386719 17.011719 5.6875 16.3125 L 4.09375 14.6875 C 3.195313 13.789063 3 13.40625 3 12.40625 C 3 10.90625 4.5 10.09375 5 10.09375 L 5 5.5 C 5 4.699219 4.300781 4 3.5 4 Z M 20.5 4 C 19.699219 4 19 4.699219 19 5.5 L 19 10.09375 C 19.5 10.09375 21 10.90625 21 12.40625 C 21 13.40625 20.804688 13.789063 19.90625 14.6875 L 18.3125 16.3125 C 17.613281 17.011719 16.1875 16.90625 16.1875 16.90625 L 19.5 13.59375 C 20.101563 12.992188 20.101563 12.101563 19.5 11.5 C 18.898438 10.898438 18.007813 10.898438 17.40625 11.5 L 14.90625 14 C 13.605469 15.300781 13 16.707031 13 18.90625 L 13 22.09375 L 18 22.09375 L 18 19.6875 C 18 19.6875 20.113281 17.394531 20.8125 16.59375 C 21.511719 15.792969 22 15.605469 22 13.40625 L 22 5.59375 C 22 4.695313 21.300781 4 20.5 4 Z M 12 4.0625 L 14.75 5.125 L 12 6.34375 L 9.25 5.125 Z M 8 6.09375 L 11.71875 7.75 L 12 7.875 L 12 10.1875 L 8 8.28125 Z "/>
</g>
</svg>
