<?xml version="1.0"?>
<svg xmlns="http://www.w3.org/2000/svg" viewBox="0 0 24 24" width="24px" height="24px">
    <path d="M 10.078125 2 C 9.838125 2 9.6338906 2.1692969 9.5878906 2.4042969 L 9.1757812 4.5234375 C 8.3550224 4.8338012 7.5961042 5.2674041 6.9296875 5.8144531 L 4.8964844 5.1132812 C 4.6704844 5.0362812 4.4207813 5.1289375 4.3007812 5.3359375 L 2.3789062 8.6640625 C 2.2589062 8.8710625 2.303375 9.1340156 2.484375 9.2910156 L 4.1132812 10.707031 C 4.0445153 11.128986 4 11.558619 4 12 C 4 12.441573 4.0402933 12.873401 4.109375 13.294922 L 2.484375 14.708984 C 2.303375 14.865984 2.2589062 15.128937 2.3789062 15.335938 L 4.3007812 18.664062 C 4.4207813 18.871063 4.6694844 18.964719 4.8964844 18.886719 L 6.9511719 18.177734 C 7.5660953 18.677679 8.2539147 19.091458 9 19.394531 L 9 16 C 9 15.595 9.0774531 15.21175 9.1894531 14.84375 C 8.4554531 14.11775 8 13.113 8 12 C 8 9.791 9.791 8 12 8 C 14.209 8 16 9.791 16 12 L 20 12 C 20 11.558619 19.955485 11.128986 19.886719 10.707031 L 21.515625 9.2910156 C 21.696625 9.1340156 21.741094 8.8710625 21.621094 8.6640625 L 19.699219 5.3359375 C 19.579219 5.1289375 19.330516 5.0352813 19.103516 5.1132812 L 17.070312 5.8144531 C 16.403896 5.2674041 15.644978 4.8338012 14.824219 4.5234375 L 14.412109 2.4042969 C 14.366109 2.1692969 14.161875 2 13.921875 2 L 10.078125 2 z M 13 14 C 11.895 14 11 14.895 11 16 L 11 24 L 24 24 L 24 16 C 24 14.895 23.105 14 22 14 L 13 14 z M 19.585938 16 L 21 17.414062 L 17.414062 21 L 14 21 L 14 19 L 16.585938 19 L 19.585938 16 z"/>
</svg>
