<?xml version="1.0"?>
<svg xmlns="http://www.w3.org/2000/svg" viewBox="0 0 24 24" width="24px" height="24px">
    <path d="M 7 3 C 5.897 3 5 3.897 5 5 L 5 21 L 9 21 L 9 20 L 9.0195312 20 C 9.1165312 18.473 10.201484 17.225781 11.896484 16.550781 C 11.333484 15.863781 11 14.978 11 14 C 11 11.757 12.757 10 15 10 C 15.734 10 16.414 10.191437 17 10.523438 L 17 10.558594 C 17.174 10.661594 17.343 10.773391 17.5 10.900391 C 17.935 10.549391 18.446 10.295484 19 10.146484 L 19 5 C 19 3.897 18.103 3 17 3 L 7 3 z M 9 7 L 11 7 L 11 9 L 9 9 L 9 7 z M 13 7 L 15 7 L 15 9 L 13 9 L 13 7 z M 9 11 L 11 11 L 11 13 L 9 13 L 9 11 z M 15 12 A 2 2 0 0 0 13 14 A 2 2 0 0 0 15 16 A 2 2 0 0 0 17 14 A 2 2 0 0 0 15 12 z M 20 12 A 2 2 0 0 0 18 14 A 2 2 0 0 0 20 16 A 2 2 0 0 0 22 14 A 2 2 0 0 0 20 12 z M 9 15 L 11 15 L 11 17 L 9 17 L 9 15 z M 15 18 C 12.815 18 11 18.908797 11 20.216797 L 11 21 L 16 21 L 19 21 L 24 21 L 24 20.216797 C 24 18.908797 22.185 18 20 18 C 19.054926 18 18.189708 18.177718 17.5 18.476562 C 16.810292 18.177718 15.945074 18 15 18 z"/>
</svg>
