<?xml version="1.0" encoding="UTF-8"?>
<svg xmlns="http://www.w3.org/2000/svg" xmlns:xlink="http://www.w3.org/1999/xlink" viewBox="0 0 24 24" version="1.1" width="24px" height="24px">
<g id="surface1">
<path style=" " d="M 4.75 3 C 4.476563 3.023438 4.226563 3.125 4 3.3125 L 2.5 4.59375 C 1.898438 5.09375 1.804688 5.992188 2.40625 6.59375 L 2.84375 7.15625 L 2.5 9.78125 L 4.5 10.03125 L 4.78125 7.9375 L 6.875 6.1875 L 8.90625 6.40625 L 9.09375 4.40625 L 6.53125 4.125 L 6 3.5 C 5.6875 3.125 5.203125 2.960938 4.75 3 Z M 9.90625 7.59375 L 8.6875 8.6875 L 17.71875 17.1875 C 16.882813 17.0625 15.964844 17 15 17 C 12.582031 17 10.445313 17.429688 9.1875 18.09375 L 6.5 10.5 L 5.1875 11.5 L 8 19.8125 L 8.0625 19.8125 C 8.5 21.042969 11.4375 22 15 22 C 18.867188 22 22 20.878906 22 19.5 C 22 19.210938 21.84375 18.945313 21.59375 18.6875 L 21.4375 18.53125 C 21.425781 18.523438 21.417969 18.507813 21.40625 18.5 Z "/>
</g>
</svg>
