<?xml version="1.0" encoding="UTF-8"?>
<svg xmlns="http://www.w3.org/2000/svg" xmlns:xlink="http://www.w3.org/1999/xlink" viewBox="0 0 24 24" version="1.1" width="24px" height="24px">
<g id="surface1">
<path style=" " d="M 12 2 C 10.34375 2 9 3.34375 9 5 C 9 6.65625 10.34375 8 12 8 C 13.65625 8 15 6.65625 15 5 C 15 3.34375 13.65625 2 12 2 Z M 12 8 C 8.203125 8 7 10 7 10 L 17 10 C 17 10 15.796875 8 12 8 Z M 6 11 L 6 15 L 3 15 L 3 17 L 4 17 L 4 20 C 4 21.105469 4.894531 22 6 22 L 18 22 C 19.105469 22 20 21.105469 20 20 L 20 17 L 21 17 L 21 15 L 18 15 L 18 11 Z M 8 13 L 16 13 L 16 15 L 8 15 Z "/>
</g>
</svg>
