<?xml version="1.0" encoding="UTF-8"?>
<svg xmlns="http://www.w3.org/2000/svg" xmlns:xlink="http://www.w3.org/1999/xlink" viewBox="0 0 24 24" version="1.1" width="24px" height="24px">
<g id="surface1">
<path style=" " d="M 12 2 C 11.449219 2 11 2.449219 11 3 L 10 3 L 10 4.1875 C 8.359375 4.960938 7 6.632813 7 9 L 7 11 L 9 11 L 9 10 C 9 9.398438 9.398438 9 10 9 C 10.601563 9 11 9.398438 11 10 L 11 11 L 13 11 L 13 10 C 13 9.398438 13.398438 9 14 9 C 14.601563 9 15 9.398438 15 10 L 15 11 L 17 11 L 17 9 C 17 6.558594 15.644531 4.902344 14 4.15625 L 14 3 L 13 3 C 13 2.449219 12.550781 2 12 2 Z M 3.5 8.3125 C 2.800781 8.3125 2 9.1875 2 10.1875 L 2 11 L 5 11 L 5 10.1875 C 5 9.1875 4.199219 8.3125 3.5 8.3125 Z M 20.5 8.3125 C 19.800781 8.3125 19 9.195313 19 10.09375 L 19 11 L 22 11 L 22 10.1875 C 22 9.1875 21.199219 8.3125 20.5 8.3125 Z M 2 12 L 2 20 C 2 21.101563 2.898438 22 4 22 L 9 22 L 9 18.5 L 12 17.5 L 15 18.5 L 15 22 L 20 22 C 21.101563 22 22 21.101563 22 20 L 22 12 Z M 5 14 L 7 14 L 7 16 L 5 16 Z M 9 14 L 11 14 L 11 16 L 9 16 Z M 13 14 L 15 14 L 15 16 L 13 16 Z M 17 14 L 19 14 L 19 16 L 17 16 Z M 5 18 L 7 18 L 7 20 L 5 20 Z M 17 18 L 19 18 L 19 20 L 17 20 Z "/>
</g>
</svg>
