<?xml version="1.0" encoding="UTF-8"?>
<svg xmlns="http://www.w3.org/2000/svg" xmlns:xlink="http://www.w3.org/1999/xlink" viewBox="0 0 24 24" version="1.1" width="24px" height="24px">
<g id="surface1">
<path style=" " d="M 18 2.03125 C 16.984375 2.03125 15.964844 2.410156 15.1875 3.1875 L 6.90625 11.5 L 3.1875 15.1875 C 3.175781 15.199219 3.167969 15.207031 3.15625 15.21875 C 3.140625 15.234375 3.140625 15.265625 3.125 15.28125 C 2.445313 16 2 16.941406 2 18 C 2 19.058594 2.445313 20 3.125 20.71875 C 3.140625 20.734375 3.140625 20.765625 3.15625 20.78125 C 3.167969 20.792969 3.175781 20.800781 3.1875 20.8125 C 3.367188 20.992188 3.566406 21.167969 3.78125 21.3125 C 3.789063 21.316406 3.804688 21.308594 3.8125 21.3125 C 4.234375 21.59375 4.675781 21.800781 5.1875 21.90625 C 5.207031 21.910156 5.230469 21.902344 5.25 21.90625 C 5.492188 21.953125 5.746094 22 6 22 C 6.253906 22 6.507813 21.953125 6.75 21.90625 C 7 21.859375 7.261719 21.785156 7.5 21.6875 C 7.75 21.585938 7.964844 21.460938 8.1875 21.3125 C 8.40625 21.167969 8.617188 21.007813 8.8125 20.8125 L 12.5 17.09375 L 14.25 15.34375 C 16.515625 18.4375 17.925781 19 19.59375 19 C 19.195313 17.699219 19.1875 16.5 19.1875 16.5 C 19.1875 16.5 20.601563 16.5 22 16 C 19.820313 14.976563 18.316406 13.144531 17.5625 12.0625 L 20.90625 8.71875 C 22.402344 7.222656 22.402344 4.679688 20.8125 3.1875 C 20.804688 3.179688 20.789063 3.195313 20.78125 3.1875 C 20.007813 2.421875 19.007813 2.03125 18 2.03125 Z M 18 3.96875 C 18.484375 3.96875 18.984375 4.171875 19.40625 4.59375 C 19.417969 4.605469 19.425781 4.613281 19.4375 4.625 C 20.214844 5.335938 20.191406 6.589844 19.5 7.28125 L 16.96875 9.8125 C 16.929688 9.105469 16.652344 8.417969 16.09375 7.90625 C 15.542969 7.355469 14.875 7.078125 14.1875 7.03125 L 16.59375 4.59375 C 17.015625 4.171875 17.515625 3.96875 18 3.96875 Z M 11.1875 10.03125 C 11.894531 10.070313 12.582031 10.347656 13.09375 10.90625 C 13.597656 11.457031 13.882813 12.144531 13.9375 12.84375 L 11.09375 15.6875 L 9.84375 16.96875 C 9.472656 15.59375 8.40625 14.527344 7.03125 14.15625 L 8.3125 12.90625 Z M 6 16 C 7.117188 16 8 16.882813 8 18 C 8 18.699219 7.65625 19.300781 7.125 19.65625 C 7.113281 19.664063 7.105469 19.679688 7.09375 19.6875 C 6.996094 19.75 6.886719 19.800781 6.78125 19.84375 C 6.769531 19.851563 6.761719 19.871094 6.75 19.875 C 6.519531 19.964844 6.265625 20 6 20 C 5.457031 20 4.984375 19.78125 4.625 19.4375 C 4.613281 19.425781 4.601563 19.417969 4.59375 19.40625 C 4.507813 19.308594 4.410156 19.230469 4.34375 19.125 C 4.339844 19.117188 4.347656 19.101563 4.34375 19.09375 C 3.933594 18.414063 3.925781 17.550781 4.34375 16.875 C 4.414063 16.769531 4.503906 16.683594 4.59375 16.59375 L 4.625 16.5625 L 4.875 16.34375 C 5.195313 16.128906 5.582031 16 6 16 Z "/>
</g>
</svg>
