<?xml version="1.0" encoding="UTF-8"?>
<svg xmlns="http://www.w3.org/2000/svg" xmlns:xlink="http://www.w3.org/1999/xlink" viewBox="0 0 24 24" version="1.1" width="24px" height="24px">
<g id="surface1">
<path style=" " d="M 15.5 2 C 12.074219 2 9.273438 4.667969 9.03125 8.03125 C 9.722656 8.078125 10.371094 8.214844 11 8.4375 C 11.03125 5.984375 13.039063 4 15.5 4 C 17.980469 4 20 6.019531 20 8.5 C 20 10.960938 18.015625 12.96875 15.5625 13 C 15.785156 13.628906 15.921875 14.277344 15.96875 14.96875 C 19.332031 14.726563 22 11.925781 22 8.5 C 22 4.914063 19.085938 2 15.5 2 Z M 12 7 L 13.78125 8.78125 L 8.78125 13.78125 L 7 12 L 7 17 L 12 17 L 10.21875 15.21875 L 15.21875 10.21875 L 17 12 L 17 7 Z M 8.5 9 C 4.914063 9 2 11.914063 2 15.5 C 2 19.085938 4.914063 22 8.5 22 C 12.085938 22 15 19.085938 15 15.5 C 15 14.4375 14.734375 13.417969 14.28125 12.53125 L 12.75 14.09375 C 12.898438 14.542969 13 15 13 15.5 C 13 17.980469 10.980469 20 8.5 20 C 6.019531 20 4 17.980469 4 15.5 C 4 13.019531 6.019531 11 8.5 11 C 9 11 9.457031 11.097656 9.90625 11.25 L 11.46875 9.71875 C 10.582031 9.261719 9.5625 9 8.5 9 Z "/>
</g>
</svg>
