<?xml version="1.0" encoding="UTF-8"?>
<svg xmlns="http://www.w3.org/2000/svg" xmlns:xlink="http://www.w3.org/1999/xlink" viewBox="0 0 24 24" version="1.1" width="24px" height="24px">
<g id="surface1">
<path style=" " d="M 14 2 C 12.894531 2 12 2.894531 12 4 C 12 4.183594 12.015625 4.363281 12.0625 4.53125 L 9.9375 6.25 C 9.65625 6.101563 9.339844 6 9 6 C 8.34375 6 7.769531 6.320313 7.40625 6.8125 L 5.9375 6.5 C 5.714844 5.636719 4.933594 5 4 5 C 2.894531 5 2 5.894531 2 7 C 2 8.105469 2.894531 9 4 9 C 4.707031 9 5.332031 8.644531 5.6875 8.09375 L 7.03125 8.375 C 7.207031 9.300781 8.023438 10 9 10 C 10.105469 10 11 9.105469 11 8 C 11 7.816406 10.984375 7.636719 10.9375 7.46875 L 13.0625 5.78125 C 13.339844 5.925781 13.664063 6 14 6 C 14.324219 6 14.632813 5.917969 14.90625 5.78125 L 18.09375 8.4375 C 18.039063 8.617188 18 8.804688 18 9 C 18 10.105469 18.894531 11 20 11 C 21.105469 11 22 10.105469 22 9 C 22 7.894531 21.105469 7 20 7 C 19.675781 7 19.367188 7.082031 19.09375 7.21875 L 15.90625 4.5625 C 15.960938 4.382813 16 4.195313 16 4 C 16 2.894531 15.105469 2 14 2 Z M 12 12 L 12 22 L 16 22 L 16 12 Z M 17 15 L 17 22 L 21 22 L 21 15 Z M 2 16 L 2 22 L 6 22 L 6 16 Z M 7 17 L 7 22 L 11 22 L 11 17 Z "/>
</g>
</svg>
