<?xml version="1.0" encoding="UTF-8"?>
<svg xmlns="http://www.w3.org/2000/svg" xmlns:xlink="http://www.w3.org/1999/xlink" viewBox="0 0 24 24" version="1.1" width="24px" height="24px">
<g id="surface1">
<path style=" " d="M 10 2 C 7.953125 2 6.09375 2.351563 4.65625 2.96875 C 3.9375 3.277344 3.324219 3.636719 2.84375 4.125 C 2.363281 4.613281 2 5.269531 2 6 L 2 18 C 2 20.601563 6 22 10 22 C 10.898438 22 11.792969 21.914063 12.59375 21.8125 C 11.992188 21.3125 11.585938 20.605469 11.1875 19.90625 C 10.789063 20.007813 10.398438 20 10 20 C 6.300781 20 4 18.699219 4 18 L 4 16.6875 C 5.5 17.488281 7.800781 18 10 18 L 10.59375 18 C 10.59375 17.699219 10.5 17.398438 10.5 17 C 10.5 16.699219 10.492188 16.300781 10.59375 16 L 10 16 C 6.300781 16 4 14.699219 4 14 L 4 12.6875 C 5.5 13.488281 7.800781 14 10 14 C 10.398438 14 10.8125 14.007813 11.3125 13.90625 C 11.8125 12.90625 12.601563 12.101563 13.5 11.5 C 12.5 11.800781 11.300781 12 10 12 C 6.300781 12 4 10.699219 4 10 L 4 8.6875 C 4.214844 8.804688 4.417969 8.929688 4.65625 9.03125 C 6.09375 9.648438 7.953125 10 10 10 C 12.046875 10 13.90625 9.648438 15.34375 9.03125 C 15.582031 8.929688 15.785156 8.804688 16 8.6875 L 16 10 C 16 10.199219 15.800781 10.386719 15.5 10.6875 C 16 10.585938 16.5 10.5 17 10.5 C 17.300781 10.5 17.699219 10.492188 18 10.59375 L 18 6 C 18 5.269531 17.636719 4.613281 17.15625 4.125 C 16.675781 3.636719 16.0625 3.277344 15.34375 2.96875 C 13.90625 2.351563 12.046875 2 10 2 Z M 10 4 C 11.816406 4 13.464844 4.34375 14.5625 4.8125 C 15.109375 5.046875 15.523438 5.300781 15.75 5.53125 C 15.976563 5.761719 16 5.902344 16 6 C 16 6.097656 15.976563 6.238281 15.75 6.46875 C 15.523438 6.699219 15.109375 6.953125 14.5625 7.1875 C 13.464844 7.65625 11.816406 8 10 8 C 8.183594 8 6.535156 7.65625 5.4375 7.1875 C 4.890625 6.953125 4.476563 6.699219 4.25 6.46875 C 4.023438 6.238281 4 6.097656 4 6 C 4 5.902344 4.023438 5.761719 4.25 5.53125 C 4.476563 5.300781 4.890625 5.046875 5.4375 4.8125 C 6.535156 4.34375 8.183594 4 10 4 Z M 16 12 C 15.898438 12 15.8125 12.085938 15.8125 12.1875 L 15.6875 13.5 C 15.386719 13.601563 15.113281 13.800781 14.8125 14 L 13.59375 13.5 C 13.492188 13.398438 13.3125 13.492188 13.3125 13.59375 L 12.3125 15.40625 C 12.210938 15.507813 12.304688 15.6875 12.40625 15.6875 L 13.5 16.5 L 13.5 17.5 L 12.40625 18.3125 C 12.007813 18.414063 12 18.492188 12 18.59375 L 13 20.40625 C 13.101563 20.507813 13.210938 20.601563 13.3125 20.5 L 14.5 20 C 14.800781 20.199219 15.105469 20.398438 15.40625 20.5 L 15.5 21.8125 C 15.5 21.914063 15.585938 22 15.6875 22 L 17.6875 22 C 17.789063 22 17.90625 21.914063 17.90625 21.8125 L 18 20.5 C 18.300781 20.398438 18.605469 20.199219 18.90625 20 L 20.09375 20.5 C 20.195313 20.601563 20.40625 20.507813 20.40625 20.40625 L 21.40625 18.59375 C 21.507813 18.492188 21.414063 18.3125 21.3125 18.3125 L 20.59375 17.5 L 20.59375 16.5 L 21.6875 15.6875 C 21.789063 15.585938 21.8125 15.507813 21.8125 15.40625 L 20.8125 13.59375 C 20.710938 13.492188 20.601563 13.398438 20.5 13.5 L 19.1875 14 C 18.886719 13.800781 18.613281 13.601563 18.3125 13.5 L 18.1875 12.1875 C 18.1875 12.085938 18.101563 12 18 12 Z M 16.90625 15 C 18.007813 15 18.90625 15.898438 18.90625 17 C 18.90625 18.101563 18.007813 19 16.90625 19 C 15.804688 19 14.90625 18.101563 14.90625 17 C 14.90625 15.898438 15.804688 15 16.90625 15 Z "/>
</g>
</svg>
