<?xml version="1.0" encoding="UTF-8"?>
<svg xmlns="http://www.w3.org/2000/svg" xmlns:xlink="http://www.w3.org/1999/xlink" viewBox="0 0 24 24" version="1.1" width="24px" height="24px">
<g id="surface1">
<path style=" " d="M 8.40625 2.15625 L 2 8.5625 L 6.21875 12.75 L 7.625 11.34375 L 4.8125 8.5625 L 8.40625 4.96875 L 9 5.5625 L 7.21875 7.34375 L 8.625 8.75 L 10.4375 6.96875 L 11.21875 7.75 L 12.625 6.34375 Z M 17.78125 3 C 17.554688 3 17.304688 3.101563 17.125 3.28125 L 15.59375 4.8125 L 19.21875 8.40625 L 20.71875 6.875 C 21.078125 6.515625 21.078125 5.894531 20.71875 5.625 L 18.40625 3.28125 C 18.226563 3.101563 18.007813 3 17.78125 3 Z M 14.71875 5.78125 L 3 17.40625 L 3 21 L 6.59375 21 L 18.21875 9.3125 Z M 17.65625 11.40625 L 16.25 12.8125 L 17 13.5625 L 15.21875 15.34375 L 16.625 16.75 L 18.40625 15 L 19.0625 15.65625 L 15.46875 19.1875 L 12.625 16.34375 L 11.21875 17.75 L 15.46875 22 L 21.90625 15.65625 Z "/>
</g>
</svg>
