<?xml version="1.0"?>
<svg xmlns="http://www.w3.org/2000/svg" viewBox="0 0 24 24" width="24px" height="24px">
    <path d="M 5 2 C 3.867 2 3 2.867 3 4 C 3 5.133 3.867 6 5 6 C 6.133 6 7 5.133 7 4 C 7 2.867 6.133 2 5 2 z M 12 2 C 10.867 2 10 2.867 10 4 C 10 5.133 10.867 6 12 6 C 13.133 6 14 5.133 14 4 C 14 2.867 13.133 2 12 2 z M 19 2 C 17.867 2 17 2.867 17 4 C 17 5.133 17.867 6 19 6 C 20.133 6 21 5.133 21 4 C 21 2.867 20.133 2 19 2 z M 5 7 C 2.7 7 2 9 2 9 L 2 10 L 8 10 L 8 9 C 8 9 7.3 7 5 7 z M 12 7 C 9.7 7 9 9 9 9 L 9 10 L 15 10 L 15 9 C 15 9 14.3 7 12 7 z M 19 7 C 16.7 7 16 9 16 9 L 16 10 L 22 10 L 22 9 C 22 9 21.3 7 19 7 z M 3.75 11 A 1.75 1.75 0 0 0 2 12.75 A 1.75 1.75 0 0 0 2.0039062 12.873047 C 2.0037629 12.882502 2 12.890891 2 12.900391 L 2 20.099609 C 2 20.115123 2.0035249 20.129137 2.0039062 20.144531 A 1.75 1.75 0 0 0 2 20.25 A 1.75 1.75 0 0 0 3.75 22 A 1.75 1.75 0 0 0 3.9101562 21.992188 C 3.940293 21.99354 3.9697097 22 4 22 L 20 22 C 20.027025 22 20.053173 21.993265 20.080078 21.992188 A 1.75 1.75 0 0 0 20.25 22 A 1.75 1.75 0 0 0 22 20.25 A 1.75 1.75 0 0 0 21.996094 20.126953 C 21.996237 20.117498 22 20.109109 22 20.099609 L 22 12.900391 C 22 12.884877 21.996475 12.870863 21.996094 12.855469 A 1.75 1.75 0 0 0 22 12.75 A 1.75 1.75 0 0 0 20.25 11 A 1.75 1.75 0 0 0 20.089844 11.007812 C 20.059707 11.00646 20.03029 11 20 11 L 4 11 C 3.9742807 11 3.949439 11.006836 3.9238281 11.007812 A 1.75 1.75 0 0 0 3.75 11 z M 5.4804688 13 L 18.519531 13 A 1.75 1.75 0 0 0 20 14.480469 L 20 18.519531 A 1.75 1.75 0 0 0 18.519531 20 L 5.4804688 20 A 1.75 1.75 0 0 0 4 18.519531 L 4 14.480469 A 1.75 1.75 0 0 0 5.4804688 13 z M 12 14 A 3 2.5 0 0 0 9 16.5 A 3 2.5 0 0 0 12 19 A 3 2.5 0 0 0 15 16.5 A 3 2.5 0 0 0 12 14 z M 7 15.5 C 6.448 15.5 6 15.947 6 16.5 C 6 17.053 6.448 17.5 7 17.5 C 7.552 17.5 8 17.053 8 16.5 C 8 15.947 7.552 15.5 7 15.5 z M 17 15.5 C 16.448 15.5 16 15.947 16 16.5 C 16 17.053 16.448 17.5 17 17.5 C 17.552 17.5 18 17.053 18 16.5 C 18 15.947 17.552 15.5 17 15.5 z"/>
</svg>
