<?xml version="1.0" encoding="UTF-8"?>
<svg xmlns="http://www.w3.org/2000/svg" xmlns:xlink="http://www.w3.org/1999/xlink" viewBox="0 0 24 24" version="1.1" width="24px" height="24px">
<g id="surface1">
<path style=" " d="M 16.5 3 C 15.699219 3 14.914063 3.3125 14.3125 3.8125 C 14.914063 4.210938 15.507813 4.6875 15.90625 5.1875 L 16.1875 4.90625 L 17 4.90625 L 17 8.5 C 17 9 16.914063 9.5 16.8125 10 C 18.613281 9.800781 20 8.300781 20 6.5 C 20 4.601563 18.398438 3 16.5 3 Z M 11.5 4 C 9 4 7 6 7 8.5 C 7 11 9 13 11.5 13 C 14 13 16 11 16 8.5 C 16 6 14 4 11.5 4 Z M 11.1875 6.40625 L 12.3125 6.40625 L 12.3125 10.5 L 10.8125 10.5 L 10.8125 7.8125 L 9.8125 7.8125 Z M 16.03125 13 C 15.539063 13.070313 14.988281 13.363281 14.3125 13.8125 C 13.710938 14.210938 12.507813 14.90625 12.40625 14.90625 C 12.507813 15.007813 13 15 13 15 L 13.09375 15 C 14.195313 15 15 15.90625 15 16.90625 L 15 17.09375 C 15 18.195313 14.09375 19 13.09375 19 L 11 19 C 9.199219 19 7.5 17.1875 7.5 17.1875 C 7.5 17.1875 9.601563 18 11 18 L 13 18 C 13.601563 18 14 17.5 14 17 C 14 16.5 13.59375 16 13.09375 16 C 11.195313 15.800781 10.40625 15 10.40625 15 C 10.40625 15 8.695313 13.707031 8.09375 13.40625 C 5.992188 12.207031 2.09375 14.6875 2.09375 14.6875 L 4.6875 20.40625 C 4.6875 20.40625 6.011719 19.613281 7.8125 20.3125 C 9.011719 20.8125 9.707031 21.195313 10.90625 21.59375 C 12.605469 22.195313 13.210938 22.113281 14.3125 21.3125 C 15.3125 20.613281 20.113281 16.8125 20.8125 16.3125 C 21.8125 15.414063 22.3125 14.695313 21.8125 14.09375 C 21.613281 13.894531 21.289063 13.695313 20.6875 13.59375 C 20.085938 13.492188 16.898438 13.101563 16.5 13 C 16.351563 12.976563 16.195313 12.976563 16.03125 13 Z "/>
</g>
</svg>
