<?xml version="1.0" encoding="UTF-8"?>
<svg xmlns="http://www.w3.org/2000/svg" xmlns:xlink="http://www.w3.org/1999/xlink" viewBox="0 0 24 24" version="1.1" width="24px" height="24px">
<g id="surface1">
<path style=" " d="M 12 2 C 10.34375 2 9 3.34375 9 5 C 9 6.65625 10.34375 8 12 8 C 13.65625 8 15 6.65625 15 5 C 15 3.34375 13.65625 2 12 2 Z M 5.5 4 C 4.121094 4 3 5.121094 3 6.5 C 3 7.878906 4.121094 9 5.5 9 C 6.878906 9 8 7.878906 8 6.5 C 8 5.121094 6.878906 4 5.5 4 Z M 18.5 4 C 17.121094 4 16 5.121094 16 6.5 C 16 7.878906 17.121094 9 18.5 9 C 19.878906 9 21 7.878906 21 6.5 C 21 5.121094 19.878906 4 18.5 4 Z M 12 9 C 8.199219 9 7 13 7 13 C 7 11.601563 7.5 10.5 7.5 10.5 C 7.101563 10.199219 6 10 5.5 10 C 3.800781 10 2 12.011719 2 13.3125 L 2 19 C 2 20.101563 2.898438 21 4 21 L 6.90625 21 C 7.804688 20.101563 9.398438 19 12 19 C 14.601563 19 16.195313 20.101563 17.09375 21 L 20 21 C 21.101563 21 22 20.101563 22 19 L 22 13.3125 C 22 12.011719 20 10 18.5 10 C 18 10 16.898438 10.199219 16.5 10.5 C 16.5 10.5 17 11.601563 17 13 C 17 13 15.800781 9 12 9 Z M 12 13 C 13.398438 13 14.5 14.101563 14.5 15.5 C 14.5 16.898438 13.398438 18 12 18 C 10.601563 18 9.5 16.898438 9.5 15.5 C 9.5 14.101563 10.601563 13 12 13 Z "/>
</g>
</svg>
