<?xml version="1.0" encoding="UTF-8"?>
<svg xmlns="http://www.w3.org/2000/svg" xmlns:xlink="http://www.w3.org/1999/xlink" viewBox="0 0 24 24" version="1.1" width="24px" height="24px">
<g id="surface1">
<path style=" " d="M 12 4 C 10.457031 4 9.136719 4.875 8.46875 6.15625 C 8.324219 6.074219 8.175781 6 8 6 C 7.449219 6 7 6.449219 7 7 C 7 7.550781 7.449219 8 8 8 C 7.449219 8 7 8.449219 7 9 C 7 9.550781 7.449219 10 8 10 C 8.175781 10 8.324219 9.925781 8.46875 9.84375 C 9.136719 11.125 10.457031 12 12 12 C 13.542969 12 14.863281 11.125 15.53125 9.84375 C 15.675781 9.925781 15.824219 10 16 10 C 16.550781 10 17 9.550781 17 9 C 17 8.449219 16.550781 8 16 8 C 16.550781 8 17 7.550781 17 7 C 17 6.449219 16.550781 6 16 6 C 15.824219 6 15.675781 6.074219 15.53125 6.15625 C 14.863281 4.875 13.542969 4 12 4 Z M 10.8125 14.0625 C 5.664063 14.535156 4 18 4 18 L 4 20 L 20 20 L 20 18 C 20 18 18.335938 14.535156 13.1875 14.0625 L 14 19 L 10 19 Z "/>
</g>
</svg>
