<?xml version="1.0" encoding="UTF-8"?>
<svg xmlns="http://www.w3.org/2000/svg" xmlns:xlink="http://www.w3.org/1999/xlink" viewBox="0 0 24 24" version="1.1" width="24px" height="24px">
<g id="surface1">
<path style=" " d="M 12 0 C 10.699219 0 9.585938 0.800781 9.1875 2 L 5 2 C 3.898438 2 3 2.898438 3 4 L 3 20 C 3 21.101563 3.898438 22 5 22 L 19 22 C 20.101563 22 21 21.101563 21 20 L 21 4 C 21 2.898438 20.101563 2 19 2 L 14.8125 2 C 14.414063 0.800781 13.300781 0 12 0 Z M 12 2 C 12.601563 2 13 2.398438 13 3 C 13 3.601563 12.601563 4 12 4 C 11.398438 4 11 3.601563 11 3 C 11 2.398438 11.398438 2 12 2 Z M 5 4 L 7 4 L 7 6 L 17 6 L 17 4 L 19 4 L 19 20 L 5 20 Z M 7 8 L 7 12 L 11 12 L 11 8 Z M 8 9 L 10 9 L 10 11 L 8 11 Z M 13 9 L 13 11 L 17 11 L 17 9 Z M 7 14 L 7 18 L 11 18 L 11 14 Z M 13 15 L 13 17 L 17 17 L 17 15 Z "/>
</g>
</svg>
