<?xml version="1.0" encoding="UTF-8"?>
<svg xmlns="http://www.w3.org/2000/svg" xmlns:xlink="http://www.w3.org/1999/xlink" viewBox="0 0 24 24" version="1.1" width="24px" height="24px">
<g id="surface1">
<path style=" " d="M 6.5 2 C 5.121094 2 4 3.121094 4 4.5 C 4 5.878906 5.121094 7 6.5 7 C 7.878906 7 9 5.878906 9 4.5 C 9 3.121094 7.878906 2 6.5 2 Z M 6.5 7 L 5.03125 7 C 3.371094 7 2 8.371094 2 10.03125 L 2 16 L 4 16 L 4 22 L 6 22 L 6 16 L 7 16 L 7 22 L 9 22 L 9 9 L 14 9 L 14 7 Z M 12 2 L 12 3 L 10 3 L 10 5 L 20 5 L 20 14 L 10 14 L 10 16 L 11.53125 16 L 10 19.34375 L 10 21 L 11 21 L 13 17 L 15 21 L 17 21 L 14.5 16 L 22 16 L 22 3 L 14 3 L 14 2 Z "/>
</g>
</svg>
